# xmcd
#
# Track frame offsets:
#	150
#	13036
#	23588
#	35463
#	43292
#	54462
#	65887
#	82697
#	99054
#	111734
#	127871
#	137746
#	148465
#	164060
#	174397
#
# Disc length: 2499 seconds
#
# Revision: 1
# Processed by: cddbd v1.5.2PL0 Copyright (c) Steve Scherf et al.
# Submitted via: audiograbber 1.83.01
#
DISCID=d109c10f
DTITLE=Various Artist - First Ladies Of Country
DYEAR=2007
DGENRE=Country
TTITLE0=Lynn Anderson - Rose Garden
TTITLE1=Loretta Lynn - You're looking At Country
TTITLE2=Tammy Wynette - Stand By Your Man
TTITLE3=Anne Murrey - Reason To Believe
TTITLE4=Patsy Cline - Stop The World (& Let Me Off)
TTITLE5=Sandy Posey - Single Girl
TTITLE6=Deborah Allen - Baby I Lied
TTITLE7=Billie Jo Spears - Blanket On The Ground
TTITLE8=Cindy Morgan - You're My Best Friend
TTITLE9=Brenda Lee - Johnny One Time
TTITLE10=Donna Fargo - Sticks and Stones
TTITLE11=Dolly Parton - (It Wasn't God Who Made) Honkey Tonk Angels
TTITLE12=Holly Dunn - Daddy's Hand
TTITLE13=Sketter Davis - My Last Date (With You)
TTITLE14=Dottie West  - DIVORCE
EXTD=
EXTT0=
EXTT1=
EXTT2=
EXTT3=
EXTT4=
EXTT5=
EXTT6=
EXTT7=
EXTT8=
EXTT9=
EXTT10=
EXTT11=
EXTT12=
EXTT13=
EXTT14=
PLAYORDER=
